<?xml version="1.0" standalone="no"?>
<!DOCTYPE svg PUBLIC "-//W3C//DTD SVG 20010904//EN"
 "http://www.w3.org/TR/2001/REC-SVG-20010904/DTD/svg10.dtd">
<svg version="1.0" xmlns="http://www.w3.org/2000/svg"
 width="260.000000pt" height="260.000000pt" viewBox="0 0 260.000000 260.000000"
 preserveAspectRatio="xMidYMid meet">
<metadata>
Created by potrace 1.11, written by Peter Selinger 2001-2013
</metadata>
<g transform="translate(0.000000,260.000000) scale(0.100000,-0.100000)"
fill="#000000" stroke="none">
<path d="M618 2540 c-25 -15 -50 -99 -64 -220 -5 -36 -13 -51 -42 -75 -118
-97 -178 -214 -175 -342 0 -29 -3 -33 -26 -33 -14 0 -40 4 -56 8 -36 11 -56 5
-49 -13 5 -12 104 -33 127 -27 4 1 7 -4 7 -12 0 -8 -15 -16 -37 -20 -66 -12
-75 -16 -63 -31 8 -9 21 -10 48 -4 55 13 61 11 68 -17 4 -15 29 -56 56 -92 49
-64 49 -65 30 -86 -68 -78 -97 -194 -67 -272 9 -24 17 -44 18 -44 1 0 20 -7
42 -14 33 -12 44 -12 65 -1 45 23 59 48 65 111 12 144 20 154 97 129 29 -9 58
-18 65 -20 8 -3 3 -24 -14 -66 -53 -132 -4 -260 94 -243 37 6 70 44 83 97 6
23 17 61 23 84 l12 42 32 -29 c47 -42 117 -149 143 -217 18 -47 23 -79 23
-173 1 -153 -18 -223 -85 -319 -35 -51 -52 -86 -55 -115 -5 -38 -2 -45 27 -69
35 -30 51 -32 117 -15 83 20 178 141 234 295 6 18 15 31 19 28 4 -2 30 -5 59
-6 47 -2 51 -4 51 -26 0 -58 -24 -114 -71 -168 -48 -55 -54 -70 -43 -111 13
-49 119 -71 186 -38 68 34 138 129 183 249 25 66 76 257 89 337 l7 37 67 -32
c61 -29 76 -32 162 -32 83 1 102 4 146 27 191 100 240 357 97 514 -86 95 -189
96 -222 2 -11 -31 -10 -33 48 -87 33 -31 67 -72 74 -91 29 -70 4 -138 -64
-172 -67 -35 -128 -21 -240 55 l-46 32 -6 105 c-4 58 -9 116 -11 130 -3 14
-11 50 -17 80 -17 81 -55 183 -107 285 -73 141 -192 248 -368 332 -82 39 -81
38 -88 76 -8 44 -47 148 -74 196 -31 56 -59 80 -94 81 -44 0 -76 -41 -117
-152 l-27 -73 -64 0 -64 0 -20 51 c-40 99 -113 185 -158 184 -7 0 -21 -5 -30
-10z m88 -63 c29 -35 91 -154 83 -161 -2 -3 -18 -6 -34 -9 -17 -2 -30 -10 -30
-17 0 -10 29 -12 124 -12 68 1 125 2 126 4 1 2 17 43 35 91 63 168 99 179 164
50 27 -54 47 -108 66 -180 10 -40 14 -44 95 -82 135 -63 251 -154 315 -246
157 -228 213 -564 151 -916 -30 -176 -89 -358 -141 -440 -38 -58 -100 -116
-135 -125 -59 -15 -125 13 -125 53 0 8 20 35 45 62 55 59 74 111 79 217 3 64
1 84 -10 88 -8 3 -15 0 -15 -7 -1 -7 -2 -16 -4 -22 -1 -5 -3 -16 -3 -24 -3
-23 -131 -9 -192 21 -58 29 -86 22 -44 -11 15 -12 38 -24 51 -27 15 -4 23 -14
23 -27 0 -35 -77 -180 -117 -221 -74 -76 -170 -95 -195 -40 -14 29 -4 53 58
144 54 80 75 160 79 294 4 183 -44 304 -172 434 -24 24 -43 46 -43 48 0 3 18
24 40 48 40 43 41 68 2 47 -34 -18 -101 -123 -101 -159 0 -19 -25 -110 -37
-133 -25 -49 -81 -43 -110 12 -41 81 25 245 125 310 15 9 21 20 17 27 -9 15
-51 -5 -81 -38 -36 -40 -50 -42 -118 -17 -90 33 -145 67 -205 128 -64 64 -91
119 -100 201 -17 144 22 247 133 354 52 49 75 79 75 95 1 38 39 200 50 214 16
19 46 7 76 -28z m-135 -966 c-19 -13 -31 -53 -35 -120 -5 -79 -16 -107 -47
-116 -57 -18 -106 38 -96 111 8 56 39 132 68 164 l28 30 46 -32 c25 -17 41
-34 36 -37z m1686 13 c72 -55 115 -162 106 -264 -5 -56 -44 -134 -89 -178 -83
-81 -214 -103 -329 -57 -89 36 -98 49 -91 119 3 32 7 61 10 63 2 2 30 -13 62
-33 96 -62 168 -73 239 -37 61 31 94 86 90 153 -3 66 -32 114 -97 164 -43 32
-48 56 -17 87 26 26 67 20 116 -17z"/>
<path d="M498 1968 c-24 -20 -28 -44 -12 -67 18 -26 55 -27 77 -3 20 22 16 50
-8 68 -23 17 -37 18 -57 2z"/>
<path d="M937 1942 c-33 -36 -16 -84 29 -84 43 0 72 55 42 80 -27 21 -54 22
-71 4z"/>
<path d="M700 1821 c0 -15 -51 -23 -66 -11 -7 7 -18 9 -23 6 -14 -9 -2 -34 20
-41 14 -5 18 -14 15 -35 -4 -37 20 -87 45 -93 28 -8 57 23 64 67 7 47 13 59
30 52 16 -6 57 22 50 34 -3 5 -16 5 -28 1 -24 -9 -77 5 -77 20 0 5 -7 9 -15 9
-8 0 -15 -4 -15 -9z m26 -80 c-3 -20 -5 -42 -6 -48 0 -18 -27 -16 -34 3 -12
31 -6 73 11 83 26 14 35 3 29 -38z"/>
<path d="M1025 1781 c-8 -14 20 -27 89 -41 38 -8 62 -8 68 -2 11 11 -1 21 -35
28 -12 2 -33 6 -47 9 -61 14 -69 15 -75 6z"/>
<path d="M1010 1725 c0 -16 58 -49 108 -60 32 -7 44 6 20 22 -12 7 -120 53
-125 53 -2 0 -3 -7 -3 -15z"/>
<path d="M202 308 c-7 -7 -12 -20 -12 -29 0 -21 42 -38 48 -20 3 8 8 9 17 1 9
-8 14 -5 17 14 3 17 0 26 -11 29 -9 3 -23 8 -31 11 -9 4 -21 1 -28 -6z m39 -8
c10 -6 19 -16 19 -22 0 -6 -3 -8 -7 -5 -3 4 -12 2 -20 -5 -18 -14 -36 2 -27
25 7 20 9 20 35 7z"/>
<path d="M519 308 c-1 -7 -1 -21 0 -30 1 -10 -3 -18 -8 -18 -6 0 -11 10 -11
22 0 20 -1 21 -20 3 -11 -10 -20 -23 -20 -29 0 -6 5 -4 11 4 8 11 12 12 16 3
2 -7 13 -13 24 -13 15 0 19 7 19 35 0 33 -9 50 -11 23z"/>
<path d="M568 300 c-2 -14 -3 -31 0 -38 5 -16 39 -16 44 1 7 18 -2 37 -17 37
-7 0 -15 6 -18 13 -2 6 -6 1 -9 -13z m32 -25 c0 -8 -4 -15 -10 -15 -5 0 -10 7
-10 15 0 8 5 15 10 15 6 0 10 -7 10 -15z"/>
<path d="M707 313 c-4 -3 -7 -19 -7 -35 0 -23 4 -28 24 -28 13 0 26 5 28 12 3
7 9 8 19 3 20 -13 39 -15 39 -4 0 6 5 7 10 4 6 -3 10 1 10 9 0 24 18 19 23 -6
l4 -23 2 23 c1 26 -27 41 -40 21 -6 -10 -9 -10 -9 -1 0 6 -9 12 -20 12 -11 0
-20 -4 -20 -10 0 -5 -9 -1 -20 10 -21 21 -32 24 -43 13z m33 -43 c-22 -14 -30
-12 -30 8 0 28 12 34 29 17 14 -14 14 -17 1 -25z m47 -2 c-3 -8 -6 -5 -6 6 -1
11 2 17 5 13 3 -3 4 -12 1 -19z"/>
<path d="M975 310 c-5 -8 -2 -17 8 -25 24 -17 21 -28 -5 -19 -13 3 -20 3 -15
-2 4 -4 25 -9 46 -10 35 -2 39 1 36 18 -6 27 -15 36 -15 15 0 -9 -3 -17 -6
-17 -9 0 -30 24 -36 40 -4 12 -6 12 -13 0z"/>
<path d="M1131 313 c-1 -7 -13 -13 -28 -13 -20 0 -24 -3 -14 -9 9 -6 10 -11 2
-15 -15 -10 -4 -26 17 -25 10 0 12 3 5 5 -13 6 -6 34 7 34 5 0 11 -10 13 -22
l4 -23 2 23 c0 12 6 22 12 22 5 0 8 -4 5 -8 -2 -4 -1 -14 5 -22 6 -11 9 -8 9
13 0 17 -5 27 -14 27 -8 0 -17 6 -19 13 -4 10 -6 10 -6 0z"/>
<path d="M398 305 c-7 -7 2 -55 11 -55 3 0 6 14 7 30 1 28 -6 37 -18 25z"/>
<path d="M870 283 c0 -25 4 -29 28 -28 21 0 27 5 28 23 1 25 -11 38 -21 22 -5
-8 -11 -7 -21 1 -11 9 -14 6 -14 -18z m44 -9 c3 -7 -2 -10 -15 -7 -22 6 -26
20 -4 20 8 0 16 -6 19 -13z"/>
<path d="M1189 308 c-9 -32 -6 -46 10 -51 13 -3 18 0 15 8 -3 7 -1 16 5 20 7
3 11 -3 11 -15 0 -12 4 -19 9 -16 5 3 7 15 4 27 -5 16 -11 19 -30 14 -16 -4
-22 -2 -18 5 3 5 4 10 1 10 -3 0 -6 -1 -7 -2z"/>
<path d="M290 275 c0 -17 5 -25 18 -25 14 0 15 2 2 10 -13 8 -12 10 3 10 9 0
17 7 17 15 0 8 -9 15 -20 15 -15 0 -20 -7 -20 -25z"/>
<path d="M338 282 c-7 -25 10 -39 36 -29 15 6 11 47 -4 47 -5 0 -6 -9 -3 -20
3 -11 1 -20 -5 -20 -6 0 -12 10 -14 23 l-3 22 -7 -23z"/>
<path d="M434 285 c-10 -24 6 -38 22 -18 7 10 14 21 14 26 0 13 -31 7 -36 -8z"/>
<path d="M626 285 c3 -11 6 -28 6 -38 -1 -25 14 -12 26 23 7 18 7 30 1 30 -5
0 -9 -8 -9 -17 0 -15 -2 -14 -16 3 -15 19 -16 19 -8 -1z"/>
<path d="M1053 280 c5 -31 17 -36 17 -7 0 15 -4 27 -10 27 -5 0 -9 -9 -7 -20z"/>
<path d="M199 213 c0 -5 -2 -15 -4 -24 -1 -9 1 -23 6 -30 6 -10 9 -3 10 21 1
35 1 35 8 6 l6 -30 13 28 c6 15 8 25 3 21 -5 -3 -12 -1 -16 5 -7 12 -25 13
-26 3z"/>
<path d="M416 193 c4 -47 5 -49 14 -19 9 29 6 46 -8 46 -4 0 -7 -12 -6 -27z"/>
<path d="M461 208 c0 -9 -7 -18 -13 -21 -10 -4 -10 -7 -1 -18 17 -18 25 -6 20
28 -2 15 -5 21 -6 11z"/>
<path d="M667 208 c-2 -7 -1 -22 4 -33 4 -11 8 -15 8 -9 1 7 10 14 21 17 29 7
26 37 -4 37 -13 0 -26 -6 -29 -12z m38 -8 c-3 -5 -10 -10 -16 -10 -5 0 -9 5
-9 10 0 6 7 10 16 10 8 0 12 -4 9 -10z"/>
<path d="M940 211 c0 -8 -7 -11 -20 -8 -11 3 -23 1 -26 -4 -3 -5 -13 -5 -24 1
-13 7 -21 7 -25 0 -4 -6 -11 -8 -16 -5 -5 4 -9 0 -9 -9 0 -8 -3 -21 -6 -30 -3
-9 -1 -16 5 -16 6 0 11 9 11 21 0 19 1 19 16 5 16 -16 39 -12 29 5 -9 14 5 11
22 -6 8 -8 20 -12 26 -8 8 5 6 9 -5 11 -27 5 -21 27 7 27 15 0 23 -5 21 -12
-3 -6 1 -16 7 -22 9 -7 12 -3 12 15 -2 26 -25 59 -25 35z m-74 -37 c1 -9 0
-13 -4 -10 -3 4 -7 14 -8 22 -1 9 0 13 4 10 3 -4 7 -14 8 -22z"/>
<path d="M260 195 c-18 -22 5 -49 30 -35 9 5 20 6 24 3 3 -3 6 1 6 10 0 25 18
21 23 -5 l4 -23 2 23 c1 26 17 29 25 5 3 -11 4 -7 3 7 -2 27 -25 33 -60 17
-11 -5 -23 -4 -31 2 -10 8 -17 7 -26 -4z m30 -15 c0 -5 -4 -10 -9 -10 -6 0
-13 5 -16 10 -3 6 1 10 9 10 9 0 16 -4 16 -10z"/>
<path d="M491 201 c-8 -5 -11 -16 -6 -30 5 -18 10 -19 27 -10 11 6 23 7 27 3
22 -30 51 1 31 33 -10 16 -11 16 -6 -5 3 -18 1 -22 -11 -18 -8 3 -18 6 -21 6
-4 0 0 5 8 11 13 9 13 10 -1 6 -9 -3 -21 -1 -25 3 -5 5 -15 5 -23 1z m18 -30
c-15 -5 -22 6 -14 19 6 9 10 9 16 -1 5 -8 4 -15 -2 -18z"/>
<path d="M594 195 c-3 -8 -4 -20 -1 -27 4 -8 6 -6 6 5 1 25 19 21 24 -5 4 -21
4 -20 6 3 1 30 -26 48 -35 24z"/>
<path d="M730 181 c0 -17 2 -31 4 -31 8 0 13 51 5 56 -5 3 -9 -9 -9 -25z"/>
<path d="M760 191 c-8 -16 -7 -22 8 -30 13 -7 22 -7 30 1 17 17 15 26 -8 38
-15 8 -21 6 -30 -9z m30 -17 c0 -8 -4 -12 -10 -9 -5 3 -10 13 -10 21 0 8 5 12
10 9 6 -3 10 -13 10 -21z"/>
</g>
</svg>
